<svg width="129" height="127" viewBox="0 0 129 127" fill="none" xmlns="http://www.w3.org/2000/svg">
<g style="mix-blend-mode:multiply" opacity="0.7">
<path d="M123.08 62.34H100.73V59.8C100.73 58.09 99.3296 56.69 97.6196 56.69H96.8796C95.1696 56.69 93.7696 58.09 93.7696 59.8V62.34H93.4796V40.66L101.35 46.81L105.43 41.58L53.1296 0.730011L0.80957 41.58L4.88957 46.81L12.7596 40.66V106.49H7.39957V114.15H92.8996C92.7796 117.26 93.1396 119.85 93.4096 121.24C92.0196 116.73 85.6896 114.42 85.6896 114.42C88.9496 117.65 90.6296 120.27 91.4996 122.24C90.2296 121.7 88.4596 121.22 87.0896 121.9C87.0896 121.9 91.1596 123.08 92.3196 126.57V126.59H105.87C105.32 122.53 108.83 119.36 108.83 119.36C106.79 119.92 104.94 122.32 104.94 122.32C104.57 114.73 108.83 112.14 108.83 112.14C103.83 114.17 102.17 122.32 102.17 122.32C100.5 116.4 104.39 108.62 104.39 108.62C102.84 109.8 101.65 111.77 100.75 113.87V92.12H123.1C126.31 92.12 128.93 89.5 128.93 86.28V68.16C128.93 64.95 126.31 62.32 123.1 62.32L123.08 62.34ZM93.7696 106.5H93.4796V92.14H93.7696V106.5Z" fill="#808080"/>
</g>
<path d="M85.4699 8.82001H70.8799V34.48H85.4699V8.82001Z" fill="#086678"/>
<mask id="mask0_1067_2961" style="mask-type:luminance" maskUnits="userSpaceOnUse" x="11" y="8" width="82" height="104">
<path d="M52.3202 8.07999L11.9502 38.44V111.96H92.6802V38.44L52.3202 8.07999Z" fill="white"/>
</mask>
<g mask="url(#mask0_1067_2961)">
<path d="M31.8812 98.12H9.74121V109.82H31.8812V98.12Z" fill="#086678"/>
<path d="M32.9809 110.89H8.63086V97.06H32.9809V110.89ZM10.8409 108.76H30.7609V99.19H10.8409V108.76Z" fill="#0A849C"/>
<path d="M54.0209 98.12H31.8809V109.82H54.0209V98.12Z" fill="#086678"/>
<path d="M55.1205 110.89H30.7705V97.06H55.1205V110.89ZM32.9905 108.76H52.9205V99.19H32.9905V108.76Z" fill="#0A849C"/>
<path d="M76.1398 98.12H54.0098V109.82H76.1398V98.12Z" fill="#086678"/>
<path d="M77.2602 110.89H52.9102V97.06H77.2602V110.89ZM55.1202 108.76H75.0502V99.19H55.1202V108.76Z" fill="#0A849C"/>
<path d="M98.2904 98.12H76.1504V109.82H98.2904V98.12Z" fill="#086678"/>
<path d="M99.39 110.89H75.04V97.06H99.39V110.89ZM77.25 108.76H97.17V99.19H77.25V108.76Z" fill="#0A849C"/>
<path d="M23.0199 86.42H0.879883V98.12H23.0199V86.42Z" fill="#086678"/>
<path d="M24.1303 99.19H-0.219727V85.36H24.1303V99.19ZM1.99027 97.06H21.9103V87.49H1.99027V97.06Z" fill="#0A849C"/>
<path d="M45.1505 86.42H23.0205V98.12H45.1505V86.42Z" fill="#086678"/>
<path d="M46.2602 99.19H21.9102V85.36H46.2602V99.19ZM24.1302 97.06H44.0502V87.49H24.1302V97.06Z" fill="#0A849C"/>
<path d="M67.3011 86.42H45.1611V98.12H67.3011V86.42Z" fill="#086678"/>
<path d="M68.4008 99.19H44.0508V85.36H68.4008V99.19ZM46.2608 97.06H66.1908V87.49H46.2608V97.06Z" fill="#0A849C"/>
<path d="M89.431 86.42H67.291V98.12H89.431V86.42Z" fill="#086678"/>
<path d="M90.5307 99.19H66.1807V85.36H90.5307V99.19ZM68.4007 97.06H88.3207V87.49H68.4007V97.06Z" fill="#0A849C"/>
<path d="M111.561 86.42H89.4307V98.12H111.561V86.42Z" fill="#086678"/>
<path d="M112.67 99.19H88.3203V85.36H112.67V99.19ZM90.5403 97.06H110.46V87.49H90.5403V97.06Z" fill="#0A849C"/>
<path d="M31.14 74.72H9V86.42H31.14V74.72Z" fill="#086678"/>
<path d="M32.2504 87.49H7.90039V73.65H32.2504V87.49ZM10.1104 85.36H30.0404V75.79H10.1104V85.36Z" fill="#0A849C"/>
<path d="M53.2706 74.72H31.1406V86.42H53.2706V74.72Z" fill="#086678"/>
<path d="M54.3803 87.49H30.0303V73.65H54.3803V87.49ZM32.2503 85.36H52.1703V75.79H32.2503V85.36Z" fill="#0A849C"/>
<path d="M75.4212 74.72H53.2812V86.42H75.4212V74.72Z" fill="#086678"/>
<path d="M76.5209 87.49H52.1709V73.65H76.5209V87.49ZM54.3809 85.36H74.3109V75.79H54.3809V85.36Z" fill="#0A849C"/>
<path d="M97.5411 74.72H75.4111V86.42H97.5411V74.72Z" fill="#086678"/>
<path d="M98.6508 87.49H74.3008V73.65H98.6508V87.49ZM76.5208 85.36H96.4408V75.79H76.5208V85.36Z" fill="#0A849C"/>
<path d="M20.0704 63.02H-2.05957V74.72H20.0704V63.02Z" fill="#086678"/>
<path d="M21.1801 75.79H-3.16992V61.96H21.1801V75.79ZM-0.949923 73.66H18.9701V64.09H-0.959922V73.66H-0.949923Z" fill="#0A849C"/>
<path d="M42.2013 63.02H20.0713V74.72H42.2013V63.02Z" fill="#086678"/>
<path d="M43.3109 75.79H18.9609V61.96H43.3109V75.79ZM21.1809 73.66H41.1009V64.09H21.1809V73.66Z" fill="#0A849C"/>
<path d="M64.3509 63.02H42.2109V74.72H64.3509V63.02Z" fill="#086678"/>
<path d="M65.4506 75.79H41.1006V61.96H65.4506V75.79ZM43.3106 73.66H63.2406V64.09H43.3106V73.66Z" fill="#0A849C"/>
<path d="M86.4808 63.02H64.3408V74.72H86.4808V63.02Z" fill="#086678"/>
<path d="M87.5805 75.79H63.2305V61.96H87.5805V75.79ZM65.4505 73.66H85.3705V64.09H65.4505V73.66Z" fill="#0A849C"/>
<path d="M108.62 63.02H86.4805V74.72H108.62V63.02Z" fill="#086678"/>
<path d="M109.72 75.79H85.3701V61.96H109.72V75.79ZM87.5801 73.66H107.51V64.09H87.5801V73.66Z" fill="#0A849C"/>
<path d="M28.1898 51.32H6.0498V63.02H28.1898V51.32Z" fill="#086678"/>
<path d="M29.3002 64.08H4.9502V50.25H29.3002V64.08ZM7.1702 61.95H27.0902V52.38H7.1702V61.95Z" fill="#0A849C"/>
<path d="M50.3204 51.32H28.1904V63.02H50.3204V51.32Z" fill="#086678"/>
<path d="M51.4301 64.08H27.0801V50.25H51.4301V64.08ZM29.3001 61.95H49.2201V52.38H29.3001V61.95Z" fill="#0A849C"/>
<path d="M72.4603 51.32H50.3203V63.02H72.4603V51.32Z" fill="#086678"/>
<path d="M73.5707 64.08H49.2207V50.25H73.5707V64.08ZM51.4307 61.95H71.3607V52.38H51.4307V61.95Z" fill="#0A849C"/>
<path d="M94.6009 51.32H72.4609V63.02H94.6009V51.32Z" fill="#086678"/>
<path d="M95.7006 64.08H71.3506V50.25H95.7006V64.08ZM73.5706 61.95H93.4906V52.38H73.5706V61.95Z" fill="#0A849C"/>
<path d="M17.1212 39.61H-5.00879V51.31H17.1212V39.61Z" fill="#086678"/>
<path d="M18.2309 52.38H-6.11914V38.55H18.2309V52.38ZM-3.89914 50.25H16.0209V40.68H-3.90914V50.25H-3.89914Z" fill="#0A849C"/>
<path d="M39.2611 39.61H17.1211V51.31H39.2611V39.61Z" fill="#086678"/>
<path d="M40.3607 52.38H16.0107V38.55H40.3607V52.38ZM18.2207 50.25H38.1507V40.68H18.2207V50.25Z" fill="#0A849C"/>
<path d="M61.3907 39.61H39.2607V51.31H61.3907V39.61Z" fill="#086678"/>
<path d="M62.5004 52.38H38.1504V38.55H62.5004V52.38ZM40.3704 50.25H60.2904V40.68H40.3704V50.25Z" fill="#0A849C"/>
<path d="M83.5306 39.61H61.3906V51.31H83.5306V39.61Z" fill="#086678"/>
<path d="M84.6303 52.38H60.2803V38.55H84.6303V52.38ZM62.4903 50.25H82.4203V40.68H62.4903V50.25Z" fill="#0A849C"/>
<path d="M105.671 39.61H83.5312V51.31H105.671V39.61Z" fill="#086678"/>
<path d="M106.771 52.38H82.4209V38.55H106.771V52.38ZM84.6309 50.25H104.561V40.68H84.6309V50.25Z" fill="#0A849C"/>
<path d="M25.2396 27.91H3.09961V39.61H25.2396V27.91Z" fill="#086678"/>
<path d="M26.34 40.68H2V26.85H26.35V40.68H26.34ZM4.21 38.55H24.13V28.98H4.21V38.55Z" fill="#0A849C"/>
<path d="M47.3812 27.91H25.2412V39.61H47.3812V27.91Z" fill="#086678"/>
<path d="M48.4809 40.68H24.1309V26.85H48.4809V40.68ZM26.3409 38.55H46.2709V28.98H26.3409V38.55Z" fill="#0A849C"/>
<path d="M69.5109 27.91H47.3809V39.61H69.5109V27.91Z" fill="#086678"/>
<path d="M70.6205 40.68H46.2705V26.85H70.6205V40.68ZM48.4805 38.55H68.4005V28.98H48.4805V38.55Z" fill="#0A849C"/>
<path d="M91.6507 27.91H69.5107V39.61H91.6507V27.91Z" fill="#086678"/>
<path d="M92.7504 40.68H68.4004V26.85H92.7504V40.68ZM70.6104 38.55H90.5304V28.98H70.6104V38.55Z" fill="#0A849C"/>
<path d="M113.79 27.91H91.6504V39.61H113.79V27.91Z" fill="#086678"/>
<path d="M114.89 40.68H90.54V26.85H114.89V40.68ZM92.75 38.55H112.68V28.98H92.75V38.55Z" fill="#0A849C"/>
<path d="M14.1703 16.21H-7.96973V27.91H14.1703V16.21Z" fill="#086678"/>
<path d="M15.2807 28.98H-9.06934V15.15H15.2807V28.98ZM-6.85934 26.85H13.0707V17.28H-6.85934V26.85Z" fill="#0A849C"/>
<path d="M36.3109 16.21H14.1709V27.91H36.3109V16.21Z" fill="#086678"/>
<path d="M37.4105 28.98H13.0605V15.15H37.4105V28.98ZM15.2705 26.85H35.2005V17.28H15.2705V26.85Z" fill="#0A849C"/>
<path d="M58.4505 16.21H36.3105V27.91H58.4505V16.21Z" fill="#086678"/>
<path d="M59.5502 28.98H35.2002V15.15H59.5502V28.98ZM37.4202 26.85H57.3402V17.28H37.4202V26.85Z" fill="#0A849C"/>
<path d="M80.5804 16.21H58.4404V27.91H80.5804V16.21Z" fill="#086678"/>
<path d="M81.6908 28.98H57.3408V15.15H81.6908V28.98ZM59.5508 26.85H79.4808V17.28H59.5508V26.85Z" fill="#0A849C"/>
<path d="M102.711 16.21H80.5811V27.91H102.711V16.21Z" fill="#086678"/>
<path d="M103.821 28.98H79.4707V15.15H103.821V28.98ZM81.6807 26.85H101.601V17.28H81.6807V26.85Z" fill="#0A849C"/>
<path d="M22.2904 4.50998H0.150391V16.21H22.2904V4.50998Z" fill="#086678"/>
<path d="M23.4008 17.27H-0.949219V3.42999H23.4008V17.27ZM1.26078 15.14H21.1908V5.55999H1.26078V15.14Z" fill="#0A849C"/>
<path d="M44.431 4.50998H22.291V16.21H44.431V4.50998Z" fill="#086678"/>
<path d="M45.5307 17.27H21.1807V3.42999H45.5307V17.27ZM23.3907 15.14H43.3207V5.55999H23.3907V15.14Z" fill="#0A849C"/>
<path d="M66.5707 4.50998H44.4307V16.21H66.5707V4.50998Z" fill="#086678"/>
<path d="M67.6703 17.27H43.3203V3.42999H67.6703V17.27ZM45.5403 15.14H65.4603V5.55999H45.5403V15.14Z" fill="#0A849C"/>
<path d="M88.7005 4.50998H66.5605V16.21H88.7005V4.50998Z" fill="#086678"/>
<path d="M89.8002 17.27H65.4502V3.42999H89.8002V17.27ZM67.6602 15.14H87.5902V5.55999H67.6602V15.14Z" fill="#0A849C"/>
<path d="M110.831 4.50998H88.7012V16.21H110.831V4.50998Z" fill="#086678"/>
<path d="M111.941 17.27H87.5908V3.42999H111.941V17.27ZM89.8008 15.14H109.721V5.55999H89.8008V15.14Z" fill="#0A849C"/>
</g>
<path d="M4.08 46.08L0 40.85L52.32 0L104.63 40.85L100.55 46.08L52.32 8.42L4.08 46.08Z" fill="#C70A3B"/>
<path d="M87.0301 5.03H69.3301V10.1H87.0301V5.03Z" fill="#AD002D"/>
<path d="M64.6095 57.17H40.0195V107.54H64.6095V57.17Z" fill="white"/>
<path d="M98.0396 105.77H6.59961V113.43H98.0396V105.77Z" fill="#C70A3B"/>
<path d="M62.7501 34.47C62.7501 40.24 58.0801 44.91 52.3101 44.91C46.5401 44.91 41.8701 40.23 41.8701 34.47C41.8701 28.71 46.5401 24.03 52.3101 24.03C58.0801 24.03 62.7501 28.71 62.7501 34.47Z" fill="white"/>
<path d="M60.6098 34.47C60.6098 39.06 56.8898 42.77 52.3098 42.77C47.7298 42.77 44.0098 39.05 44.0098 34.47C44.0098 29.89 47.7298 26.17 52.3098 26.17C56.8898 26.17 60.6098 29.89 60.6098 34.47Z" fill="#C3E4EB"/>
<path d="M59.4201 40.35L53.5501 34.47L59.4201 28.6L58.2401 27.43L52.3701 33.3L46.5001 27.43L45.3301 28.6L51.2001 34.47L45.3301 40.35L46.5001 41.52L52.3701 35.65L58.2501 41.52L59.4201 40.35Z" fill="white"/>
<path d="M32.3402 52.46H19.9902V97.42H32.3402V52.46Z" fill="white"/>
<g style="mix-blend-mode:multiply">
<path d="M52.3702 8.12999L52.3202 8.07999L11.9502 38.44V111.96H52.3702V8.12999Z" fill="#EDEDED"/>
</g>
<path d="M61.3503 60.47H43.2803V73.37H61.3503V60.47Z" fill="#C3E4EB"/>
<path d="M61.3503 76.83H43.2803V89.74H61.3503V76.83Z" fill="#C3E4EB"/>
<path d="M30.6904 83.28H21.6504V95.54H30.6904V83.28Z" fill="#9ECFD9"/>
<path d="M30.6904 68.81H21.6504V81.07H30.6904V68.81Z" fill="#9ECFD9"/>
<path d="M30.6904 54.34H21.6504V66.6H30.6904V54.34Z" fill="#9ECFD9"/>
<path d="M84.64 52.46H72.29V97.42H84.64V52.46Z" fill="white"/>
<path d="M82.9804 83.28H73.9404V95.54H82.9804V83.28Z" fill="#C3E4EB"/>
<path d="M82.9804 68.81H73.9404V81.07H82.9804V68.81Z" fill="#C3E4EB"/>
<path d="M82.9804 54.34H73.9404V66.6H82.9804V54.34Z" fill="#C3E4EB"/>
<path d="M64.1996 82.35C64.1996 83.34 63.3996 84.15 62.3996 84.15C61.3996 84.15 60.5996 83.35 60.5996 82.35C60.5996 81.35 61.3996 80.55 62.3996 80.55C63.3996 80.55 64.1996 81.36 64.1996 82.35Z" fill="#C70A3B"/>
<path d="M52.3703 60.47H43.2803V73.37H52.3703V60.47Z" fill="#9ECFD9"/>
<path d="M52.3703 76.83H43.2803V89.74H52.3703V76.83Z" fill="#9ECFD9"/>
<path d="M52.37 0.0500002L52.32 0L0 40.85L4.08 46.08L52.32 8.42L52.37 8.47V0.0500002Z" fill="#AD002D"/>
<path d="M52.3796 105.77H6.59961V113.43H52.3796V105.77Z" fill="#AD002D"/>
<path d="M45.9398 29.21C44.7498 30.65 44.0098 32.46 44.0098 34.47C44.0098 36.48 44.7498 38.3 45.9398 39.73L51.1998 34.47L45.9398 29.21Z" fill="#9ECFD9"/>
<path d="M52.3701 26.17C52.3701 26.17 52.3301 26.17 52.3101 26.17C50.3301 26.17 48.5401 26.89 47.1201 28.04L52.3801 33.29V26.17H52.3701Z" fill="#9ECFD9"/>
<path d="M52.3094 42.78C52.3094 42.78 52.3494 42.78 52.3694 42.78V35.66L47.1094 40.91C48.5394 42.06 50.3294 42.78 52.2994 42.78H52.3094Z" fill="#9ECFD9"/>
<path d="M96.07 55.97H96.81C98.53 55.97 99.92 57.36 99.92 59.08V122.75C99.92 124.47 98.53 125.86 96.81 125.86H96.07C94.35 125.86 92.96 124.47 92.96 122.75V59.08C92.96 57.36 94.35 55.97 96.07 55.97Z" fill="#5C4D46"/>
<path d="M104.12 121.6C103.75 114.01 108.01 111.42 108.01 111.42C103.01 113.45 101.35 121.6 101.35 121.6C99.6796 115.68 103.57 107.9 103.57 107.9C99.6596 110.88 98.0296 118.85 97.6196 121.25C98.0096 118.2 97.4696 112.62 97.4696 112.62C96.4496 116.41 95.4396 118.81 95.4396 118.81C92.6696 111.41 94.0196 104.42 94.0196 104.42C90.5096 112.72 92.8496 121.59 92.8496 121.59C92.2396 116.36 84.8896 113.69 84.8896 113.69C88.1496 116.92 89.8296 119.54 90.6996 121.51C89.4296 120.97 87.6596 120.49 86.2896 121.17C86.2896 121.17 90.3596 122.35 91.5196 125.84V125.86H105.07C104.52 121.8 108.03 118.63 108.03 118.63C105.99 119.19 104.14 121.59 104.14 121.59L104.12 121.6Z" fill="#249128"/>
<path d="M70.62 61.61H122.27C125.49 61.61 128.11 64.22 128.11 67.45V85.57C128.11 88.79 125.49 91.41 122.27 91.41H70.62C67.4 91.41 64.79 88.8 64.79 85.58V67.46C64.79 64.24 67.4 61.62 70.63 61.62L70.62 61.61Z" fill="#2E5F3C"/>
<path d="M73.6299 70.38C73.9399 70.33 74.2699 70.28 74.6199 70.23C74.9699 70.19 75.3299 70.15 75.6799 70.12C76.0299 70.09 76.3799 70.07 76.7099 70.06C77.0499 70.05 77.3499 70.04 77.6299 70.04C78.2799 70.04 78.9299 70.1 79.5599 70.22C80.1899 70.34 80.7599 70.54 81.2599 70.84C81.7599 71.13 82.1599 71.54 82.4599 72.05C82.7599 72.56 82.9099 73.21 82.9099 73.98C82.9099 75.13 82.6399 76.06 82.1099 76.78C81.5799 77.5 80.8599 78 79.9699 78.28L80.9499 78.9L84.1599 84.25H80.9999L77.8099 78.76L76.3699 78.5V84.25H73.6299V70.37V70.38ZM77.8399 72.48C77.5599 72.48 77.2799 72.48 77.0099 72.5C76.7399 72.51 76.5299 72.54 76.3799 72.58V76.64H77.5399C78.2999 76.64 78.9099 76.47 79.3599 76.12C79.8099 75.77 80.0399 75.2 80.0399 74.4C80.0399 73.8 79.8499 73.33 79.4799 72.99C79.0999 72.65 78.5599 72.48 77.8399 72.48Z" fill="white"/>
<path d="M85.6797 70.24H93.9897V72.68H88.4197V75.94H93.4897V78.39H88.4197V81.81H94.0897V84.25H85.6797V70.23V70.24Z" fill="white"/>
<path d="M99.6294 76.95L98.5294 74.75H98.4294L98.7494 76.95V84.26H96.1494V70.14H98.1494L103.459 77.61L104.519 79.75H104.619L104.299 77.61V70.24H106.899V84.36H104.899L99.6294 76.95Z" fill="white"/>
<path d="M119.25 72.68H115.17V84.26H112.42V72.68H108.32V70.24H119.26V72.68H119.25Z" fill="white"/>
</svg>
