<svg width="140" height="134" viewBox="0 0 140 134" fill="none" xmlns="http://www.w3.org/2000/svg">
<g style="mix-blend-mode:multiply" opacity="0.7">
<path d="M107.33 50.78L111.39 45.57L92.3496 30.71V15.02H93.8896V9.98H76.2996V15.02H77.8496V19.38L59.3896 4.97L7.38965 45.57L11.4496 50.78L19.2796 44.67V110.1H13.9496V117.71H59.4496H104.83V110.1H99.5096V44.67L107.33 50.78Z" fill="#808080"/>
</g>
<path d="M90.96 12.76H76.46V38.26H90.96V12.76Z" fill="#D9A48A"/>
<mask id="mask0_1067_2754" style="mask-type:luminance" maskUnits="userSpaceOnUse" x="17" y="12" width="82" height="104">
<path d="M58.0097 12.03L17.8896 42.21V115.28H98.1196V42.21L58.0097 12.03Z" fill="white"/>
</mask>
<g mask="url(#mask0_1067_2754)">
<path d="M37.6895 101.53H15.6895V113.16H37.6895V101.53Z" fill="#D9A48A"/>
<path d="M38.7898 114.22H14.5898V100.47H38.7898V114.22ZM16.7898 112.1H36.5898V102.59H16.7898V112.1Z" fill="#BA8C76"/>
<path d="M59.6894 101.53H37.6895V113.16H59.6894V101.53Z" fill="#D9A48A"/>
<path d="M60.7898 114.22H36.5898V100.47H60.7898V114.22ZM38.7898 112.1H58.5898V102.59H38.7898V112.1Z" fill="#BA8C76"/>
<path d="M81.6895 101.53H59.6895V113.16H81.6895V101.53Z" fill="#D9A48A"/>
<path d="M82.7996 114.22H58.5996V100.47H82.7996V114.22ZM60.7996 112.1H80.5996V102.59H60.7996V112.1Z" fill="#BA8C76"/>
<path d="M103.689 101.53H81.6895V113.16H103.689V101.53Z" fill="#D9A48A"/>
<path d="M104.8 114.22H80.5996V100.47H104.8V114.22ZM82.7996 112.1H102.6V102.59H82.7996V112.1Z" fill="#BA8C76"/>
<path d="M28.8897 89.9H6.88965V101.53H28.8897V89.9Z" fill="#D9A48A"/>
<path d="M29.99 102.59H5.79004V88.84H29.99V102.59ZM7.99004 100.47H27.79V90.96H7.99004V100.47Z" fill="#BA8C76"/>
<path d="M50.8896 89.9H28.8896V101.53H50.8896V89.9Z" fill="#D9A48A"/>
<path d="M51.99 102.59H27.79V88.84H51.99V102.59ZM29.99 100.47H49.79V90.96H29.99V100.47Z" fill="#BA8C76"/>
<path d="M72.8896 89.9H50.8896V101.53H72.8896V89.9Z" fill="#D9A48A"/>
<path d="M73.99 102.59H49.79V88.84H73.99V102.59ZM51.99 100.47H71.79V90.96H51.99V100.47Z" fill="#BA8C76"/>
<path d="M94.8896 89.9H72.8896V101.53H94.8896V89.9Z" fill="#D9A48A"/>
<path d="M95.99 102.59H71.79V88.84H95.99V102.59ZM73.99 100.47H93.79V90.96H73.99V100.47Z" fill="#BA8C76"/>
<path d="M116.89 89.9H94.8896V101.53H116.89V89.9Z" fill="#D9A48A"/>
<path d="M117.99 102.59H93.79V88.84H117.99V102.59ZM95.99 100.47H115.79V90.96H95.99V100.47Z" fill="#BA8C76"/>
<path d="M36.959 78.27H14.959V89.9H36.959V78.27Z" fill="#D9A48A"/>
<path d="M38.0594 90.96H13.8594V77.21H38.0594V90.96ZM16.0594 88.84H35.8594V79.32H16.0594V88.84Z" fill="#BA8C76"/>
<path d="M58.959 78.27H36.959V89.9H58.959V78.27Z" fill="#D9A48A"/>
<path d="M60.0594 90.96H35.8594V77.21H60.0594V90.96ZM38.0594 88.84H57.8594V79.32H38.0594V88.84Z" fill="#BA8C76"/>
<path d="M80.959 78.27H58.959V89.9H80.959V78.27Z" fill="#D9A48A"/>
<path d="M82.0594 90.96H57.8594V77.21H82.0594V90.96ZM60.0594 88.84H79.8594V79.32H60.0594V88.84Z" fill="#BA8C76"/>
<path d="M102.959 78.27H80.959V89.9H102.959V78.27Z" fill="#D9A48A"/>
<path d="M104.059 90.96H79.8594V77.21H104.059V90.96ZM82.0594 88.84H101.859V79.32H82.0594V88.84Z" fill="#BA8C76"/>
<path d="M25.959 66.63H3.95898V78.27H25.959V66.63Z" fill="#D9A48A"/>
<path d="M27.0594 79.33H2.85938V65.58H27.0594V79.33ZM5.05937 77.21H24.8594V67.7H5.05937V77.21Z" fill="#BA8C76"/>
<path d="M47.959 66.63H25.959V78.27H47.959V66.63Z" fill="#D9A48A"/>
<path d="M49.0594 79.33H24.8594V65.58H49.0594V79.33ZM27.0594 77.21H46.8594V67.7H27.0594V77.21Z" fill="#BA8C76"/>
<path d="M69.959 66.63H47.959V78.27H69.959V66.63Z" fill="#D9A48A"/>
<path d="M71.0594 79.33H46.8594V65.58H71.0594V79.33ZM49.0594 77.21H68.8594V67.7H49.0594V77.21Z" fill="#BA8C76"/>
<path d="M91.959 66.63H69.959V78.27H91.959V66.63Z" fill="#D9A48A"/>
<path d="M93.0594 79.33H68.8594V65.58H93.0594V79.33ZM71.0594 77.21H90.8594V67.7H71.0594V77.21Z" fill="#BA8C76"/>
<path d="M113.959 66.63H91.959V78.27H113.959V66.63Z" fill="#D9A48A"/>
<path d="M115.059 79.33H90.8594V65.58H115.059V79.33ZM93.0594 77.21H112.859V67.7H93.0594V77.21Z" fill="#BA8C76"/>
<path d="M34.0293 55.01H12.0293V66.64H34.0293V55.01Z" fill="#D9A48A"/>
<path d="M35.1297 67.69H10.9297V53.94H35.1297V67.69ZM13.1297 65.57H32.9297V56.06H13.1297V65.57Z" fill="#BA8C76"/>
<path d="M56.0293 55.01H34.0293V66.64H56.0293V55.01Z" fill="#D9A48A"/>
<path d="M57.1297 67.69H32.9297V53.94H57.1297V67.69ZM35.1297 65.57H54.9297V56.06H35.1297V65.57Z" fill="#BA8C76"/>
<path d="M78.0293 55.01H56.0293V66.64H78.0293V55.01Z" fill="#D9A48A"/>
<path d="M79.1297 67.69H54.9297V53.94H79.1297V67.69ZM57.1297 65.57H76.9297V56.06H57.1297V65.57Z" fill="#BA8C76"/>
<path d="M100.029 55.01H78.0293V66.64H100.029V55.01Z" fill="#D9A48A"/>
<path d="M101.13 67.69H76.9297V53.94H101.13V67.69ZM79.1297 65.57H98.9297V56.06H79.1297V65.57Z" fill="#BA8C76"/>
<path d="M23.0303 43.37H1.03027V55H23.0303V43.37Z" fill="#D9A48A"/>
<path d="M24.1299 56.07H-0.0800781V42.32H24.1199V56.07H24.1299ZM2.12992 53.95H21.9299V44.44H2.11992V53.95H2.12992Z" fill="#BA8C76"/>
<path d="M45.0293 43.37H23.0293V55H45.0293V43.37Z" fill="#D9A48A"/>
<path d="M46.1297 56.07H21.9297V42.32H46.1297V56.07ZM24.1297 53.95H43.9297V44.44H24.1297V53.95Z" fill="#BA8C76"/>
<path d="M67.0293 43.37H45.0293V55H67.0293V43.37Z" fill="#D9A48A"/>
<path d="M68.1297 56.07H43.9297V42.32H68.1297V56.07ZM46.1297 53.95H65.9297V44.44H46.1297V53.95Z" fill="#BA8C76"/>
<path d="M89.0293 43.37H67.0293V55H89.0293V43.37Z" fill="#D9A48A"/>
<path d="M90.1297 56.07H65.9297V42.32H90.1297V56.07ZM68.1297 53.95H87.9297V44.44H68.1297V53.95Z" fill="#BA8C76"/>
<path d="M111.029 43.37H89.0293V55H111.029V43.37Z" fill="#D9A48A"/>
<path d="M112.13 56.07H87.9297V42.32H112.13V56.07ZM90.1297 53.95H109.93V44.44H90.1297V53.95Z" fill="#BA8C76"/>
<path d="M31.0889 31.74H9.08887V43.37H31.0889V31.74Z" fill="#D9A48A"/>
<path d="M32.1993 44.43H7.98926V30.68H32.1893V44.43H32.1993ZM10.1993 42.31H29.9993V32.8H10.1993V42.31Z" fill="#BA8C76"/>
<path d="M53.0996 31.74H31.0996V43.37H53.0996V31.74Z" fill="#D9A48A"/>
<path d="M54.2 44.43H30V30.68H54.2V44.43ZM32.2 42.31H52V32.8H32.2V42.31Z" fill="#BA8C76"/>
<path d="M75.0996 31.74H53.0996V43.37H75.0996V31.74Z" fill="#D9A48A"/>
<path d="M76.2 44.43H52V30.68H76.2V44.43ZM54.2 42.31H74V32.8H54.2V42.31Z" fill="#BA8C76"/>
<path d="M97.0996 31.74H75.0996V43.37H97.0996V31.74Z" fill="#D9A48A"/>
<path d="M98.2 44.43H74V30.68H98.2V44.43ZM76.2 42.31H96V32.8H76.2V42.31Z" fill="#BA8C76"/>
<path d="M119.1 31.74H97.0996V43.37H119.1V31.74Z" fill="#D9A48A"/>
<path d="M120.2 44.43H96V30.68H120.2V44.43ZM98.2 42.31H118V32.8H98.2V42.31Z" fill="#BA8C76"/>
<path d="M20.0889 20.11H-1.91113V31.75H20.0889V20.11Z" fill="#D9A48A"/>
<path d="M21.1893 32.8H-3.01074V19.05H21.1893V32.8ZM-0.810742 30.68H18.9893V21.17H-0.810742V30.68Z" fill="#BA8C76"/>
<path d="M42.0889 20.11H20.0889V31.75H42.0889V20.11Z" fill="#D9A48A"/>
<path d="M43.1893 32.8H18.9893V19.05H43.1893V32.8ZM21.1893 30.68H40.9893V21.17H21.1893V30.68Z" fill="#BA8C76"/>
<path d="M64.0898 20.11H42.0898V31.75H64.0898V20.11Z" fill="#D9A48A"/>
<path d="M65.2 32.8H41V19.05H65.2V32.8ZM43.2 30.68H63V21.17H43.2V30.68Z" fill="#BA8C76"/>
<path d="M86.0996 20.11H64.0996V31.75H86.0996V20.11Z" fill="#D9A48A"/>
<path d="M87.2 32.8H63V19.05H87.2V32.8ZM65.2 30.68H85V21.17H65.2V30.68Z" fill="#BA8C76"/>
<path d="M108.1 20.11H86.0996V31.75H108.1V20.11Z" fill="#D9A48A"/>
<path d="M109.2 32.8H85V19.05H109.2V32.8ZM87.2 30.68H107V21.17H87.2V30.68Z" fill="#BA8C76"/>
<path d="M28.1592 8.47998H6.15918V20.11H28.1592V8.47998Z" fill="#D9A48A"/>
<path d="M29.2596 21.17H5.05957V7.41998H29.2596V21.17ZM7.25957 19.05H27.0596V9.52998H7.25957V19.05Z" fill="#BA8C76"/>
<path d="M50.1592 8.47998H28.1592V20.11H50.1592V8.47998Z" fill="#D9A48A"/>
<path d="M51.2596 21.17H27.0596V7.41998H51.2596V21.17ZM29.2596 19.05H49.0596V9.52998H29.2596V19.05Z" fill="#BA8C76"/>
<path d="M72.1592 8.47998H50.1592V20.11H72.1592V8.47998Z" fill="#D9A48A"/>
<path d="M73.2693 21.17H49.0693V7.41998H73.2693V21.17ZM51.2693 19.05H71.0693V9.52998H51.2693V19.05Z" fill="#BA8C76"/>
<path d="M94.1689 8.47998H72.1689V20.11H94.1689V8.47998Z" fill="#D9A48A"/>
<path d="M95.2693 21.17H71.0693V7.41998H95.2693V21.17ZM73.2693 19.05H93.0693V9.52998H73.2693V19.05Z" fill="#BA8C76"/>
<path d="M116.169 8.47998H94.1689V20.11H116.169V8.47998Z" fill="#D9A48A"/>
<path d="M117.269 21.17H93.0693V7.41998H117.269V21.17ZM95.2693 19.05H115.069V9.52998H95.2693V19.05Z" fill="#BA8C76"/>
</g>
<path d="M10.07 49.8L6 44.6L58.01 4L110 44.6L105.95 49.8L58.01 12.37L10.07 49.8Z" fill="#C70A3B"/>
<path d="M92.5099 9H74.9199V14.04H92.5099V9Z" fill="#C70A3B"/>
<path d="M70.2203 60.82H45.7803V110.88H70.2203V60.82Z" fill="white"/>
<path d="M103.44 109.13H12.5596V116.74H103.44V109.13Z" fill="#C70A3B"/>
<path d="M68.3801 38.27C68.3801 44 63.7301 48.65 58.0001 48.65C52.2701 48.65 47.6201 44 47.6201 38.27C47.6201 32.54 52.2701 27.89 58.0001 27.89C63.7301 27.89 68.3801 32.54 68.3801 38.27Z" fill="white"/>
<path d="M66.25 38.27C66.25 42.83 62.56 46.52 58 46.52C53.44 46.52 49.75 42.82 49.75 38.27C49.75 33.72 53.44 30.02 58 30.02C62.56 30.02 66.25 33.72 66.25 38.27Z" fill="#C3E4EB"/>
<path d="M65.0705 44.1L59.2305 38.27L65.0705 32.43L63.9005 31.26L58.0605 37.1L52.2305 31.26L51.0605 32.43L56.9005 38.27L51.0605 44.1L52.2305 45.27L58.0605 39.43L63.9005 45.27L65.0705 44.1Z" fill="white"/>
<path d="M38.1499 56.15H25.8799V100.83H38.1499V56.15Z" fill="white"/>
<g style="mix-blend-mode:multiply">
<path d="M58.0596 12.08L58.0097 12.03L17.8896 42.21V115.28H58.0596V12.08Z" fill="#EDEDED"/>
</g>
<path d="M66.9903 64.1H49.0303V76.93H66.9903V64.1Z" fill="#C3E4EB"/>
<path d="M66.9903 80.37H49.0303V93.19H66.9903V80.37Z" fill="#C3E4EB"/>
<path d="M36.5103 86.78H27.5303V98.96H36.5103V86.78Z" fill="#9ECFD9"/>
<path d="M36.5103 72.39H27.5303V84.58H36.5103V72.39Z" fill="#9ECFD9"/>
<path d="M36.5103 58.01H27.5303V70.19H36.5103V58.01Z" fill="#9ECFD9"/>
<path d="M90.1303 56.15H77.8604V100.83H90.1303V56.15Z" fill="white"/>
<path d="M88.48 86.78H79.5V98.96H88.48V86.78Z" fill="#C3E4EB"/>
<path d="M88.48 72.39H79.5V84.58H88.48V72.39Z" fill="#C3E4EB"/>
<path d="M88.48 58.01H79.5V70.19H88.48V58.01Z" fill="#C3E4EB"/>
<path d="M68.0302 87.64C69.0188 87.64 69.8202 86.8386 69.8202 85.85C69.8202 84.8614 69.0188 84.06 68.0302 84.06C67.0416 84.06 66.2402 84.8614 66.2402 85.85C66.2402 86.8386 67.0416 87.64 68.0302 87.64Z" fill="#086273"/>
<path d="M58.0703 64.1H49.0303V76.93H58.0703V64.1Z" fill="#9ECFD9"/>
<path d="M58.0703 80.37H49.0303V93.19H58.0703V80.37Z" fill="#9ECFD9"/>
<path d="M58.06 4.05L58.01 4L6 44.6L10.07 49.8L58.01 12.37L58.06 12.42V4.05Z" fill="#AD002D"/>
<path d="M58.0596 109.13H12.5596V116.74H58.0596V109.13Z" fill="#AD002D"/>
<path d="M51.67 33.03C50.49 34.46 49.75 36.26 49.75 38.26C49.75 40.26 50.49 42.06 51.66 43.49L56.89 38.26L51.66 33.03H51.67Z" fill="#9ECFD9"/>
<path d="M58.0598 30.02C58.0598 30.02 58.0198 30.02 57.9998 30.02C56.0398 30.02 54.2598 30.74 52.8398 31.88L58.0598 37.1V30.02Z" fill="#9ECFD9"/>
<path d="M57.9998 46.52C57.9998 46.52 58.0398 46.52 58.0598 46.52V39.44L52.8398 44.66C54.2598 45.81 56.0398 46.52 57.9998 46.52Z" fill="#9ECFD9"/>
<g style="mix-blend-mode:multiply" opacity="0.7">
<path d="M127.93 65.65H105.72V63.42C105.72 61.72 104.33 60.33 102.63 60.33H101.9C100.2 60.33 98.8098 61.72 98.8098 63.42V65.65H76.5998C73.4098 65.65 70.7998 68.26 70.7998 71.45V89.46C70.7998 92.65 73.4098 95.26 76.5998 95.26H98.8098V111.55C97.3498 117.05 98.0398 122.29 98.4498 124.48C97.0598 119.99 90.7698 117.7 90.7698 117.7C94.0098 120.92 95.6798 123.51 96.5498 125.47C95.2898 124.93 93.5298 124.45 92.1598 125.13C92.1598 125.13 96.1998 126.31 97.3598 129.77V129.79H110.83C110.28 125.76 113.77 122.6 113.77 122.6C111.74 123.15 109.9 125.54 109.9 125.54C109.53 118 113.77 115.42 113.77 115.42C108.8 117.44 107.15 125.54 107.15 125.54C105.49 119.66 109.36 111.93 109.36 111.93C107.81 113.1 106.63 115.07 105.74 117.15V95.25H127.95C131.14 95.25 133.75 92.64 133.75 89.45V71.44C133.75 68.25 131.14 65.64 127.95 65.64L127.93 65.65Z" fill="#808080"/>
</g>
<path d="M101.19 59.63H101.92C103.63 59.63 105.01 61.02 105.01 62.72V126C105.01 127.71 103.62 129.09 101.92 129.09H101.19C99.4796 129.09 98.0996 127.7 98.0996 126V62.71C98.0996 61 99.4796 59.62 101.19 59.62V59.63Z" fill="#5C4D46"/>
<path d="M109.19 124.86C108.82 117.32 113.06 114.74 113.06 114.74C108.09 116.76 106.44 124.86 106.44 124.86C104.78 118.98 108.65 111.25 108.65 111.25C104.76 114.2 103.14 122.13 102.73 124.52C103.11 121.49 102.58 115.95 102.58 115.95C101.57 119.71 100.56 122.11 100.56 122.11C97.8003 114.76 99.1503 107.81 99.1503 107.81C95.6503 116.06 97.9803 124.87 97.9803 124.87C97.3703 119.67 90.0703 117.02 90.0703 117.02C93.3103 120.24 94.9803 122.83 95.8503 124.79C94.5903 124.25 92.8303 123.77 91.4603 124.45C91.4603 124.45 95.5003 125.63 96.6603 129.09V129.11H110.13C109.58 125.08 113.07 121.92 113.07 121.92C111.04 122.47 109.2 124.86 109.2 124.86H109.19Z" fill="#249128"/>
<path d="M75.8898 64.95H127.23C130.43 64.95 133.03 67.55 133.03 70.75V88.76C133.03 91.96 130.43 94.56 127.23 94.56H75.8898C72.6898 94.56 70.0898 91.96 70.0898 88.76V70.75C70.0898 67.55 72.6898 64.95 75.8898 64.95Z" fill="#2E5F3C"/>
<path d="M87.0098 82.98C87.0098 82.56 86.8498 82.21 86.5398 81.95C86.2298 81.68 85.8398 81.44 85.3698 81.22C84.8998 81 84.3898 80.77 83.8398 80.54C83.2898 80.31 82.7798 80.02 82.3098 79.69C81.8398 79.35 81.4498 78.93 81.1398 78.43C80.8298 77.92 80.6698 77.28 80.6698 76.5C80.6698 75.82 80.7798 75.24 81.0098 74.74C81.2298 74.24 81.5598 73.82 81.9698 73.49C82.3898 73.16 82.8798 72.91 83.4498 72.75C84.0198 72.59 84.6598 72.51 85.3598 72.51C86.1698 72.51 86.9298 72.58 87.6498 72.72C88.3698 72.86 88.9598 73.06 89.4198 73.33L88.5598 75.62C88.2698 75.43 87.8298 75.27 87.2498 75.11C86.6698 74.96 86.0398 74.88 85.3598 74.88C84.7198 74.88 84.2398 75.01 83.8998 75.26C83.5598 75.51 83.3898 75.85 83.3898 76.28C83.3898 76.68 83.5398 77.01 83.8598 77.28C84.1698 77.55 84.5598 77.79 85.0298 78.02C85.4998 78.25 86.0098 78.48 86.5598 78.72C87.1098 78.96 87.6198 79.25 88.0898 79.58C88.5598 79.92 88.9498 80.34 89.2598 80.84C89.5698 81.34 89.7298 81.96 89.7298 82.7C89.7298 83.44 89.6098 84.08 89.3598 84.62C89.1098 85.16 88.7698 85.6 88.3298 85.96C87.8798 86.32 87.3498 86.58 86.7198 86.76C86.0898 86.93 85.3998 87.02 84.6398 87.02C83.6498 87.02 82.7698 86.92 82.0098 86.74C81.2498 86.56 80.6998 86.37 80.3398 86.18L81.2198 83.85C81.3598 83.93 81.5498 84.02 81.7898 84.11C82.0198 84.2 82.2798 84.29 82.5798 84.37C82.8698 84.45 83.1798 84.52 83.5098 84.57C83.8298 84.62 84.1698 84.65 84.5098 84.65C85.3198 84.65 85.9398 84.51 86.3698 84.24C86.7998 83.97 87.0198 83.55 87.0198 82.99L87.0098 82.98Z" fill="white"/>
<path d="M98.4194 83.64H94.1394L93.0894 86.72H90.3594L95.3694 72.69H97.3794L102.389 86.72H99.5194L98.3994 83.64H98.4194ZM94.8394 81.45H97.8294L96.7994 78.35L96.3794 76.16H96.2794L95.8594 78.37L94.8394 81.45Z" fill="white"/>
<path d="M112.41 86.72H103.59V72.79H106.31V84.29H112.4V86.72H112.41Z" fill="white"/>
<path d="M113.83 72.79H122.09V75.22H116.56V78.46H121.6V80.89H116.56V84.29H122.19V86.72H113.83V72.79Z" fill="white"/>
</svg>
